:SAMPLES-PER-SECOND 30
:FULLY-SPECIFIED
:DEGREES
156
root  -4.39196 40.7752 -0.345235 1.36667 -43.6805 3.24576
RightUpLeg  5.29622 -3.83503 -0.221449
RightLeg  -10.3108 -62.262 10.1333
RightFoot  -1.92251 -0.406524 4.84552
RightToes  -3.1126e-008 1.75238e-005 3.56266e-009
Spine  9.17913 7.12229 2.48696
Spine1  -17.7752 7.18897 -8.73813
HEad  -1.02202 -2.258 2.76251
LeftShoulder1  0.184119 2.65428 -14.7428
LeftArm  -23.0146 17.9549 -45.6704
LeftForeArm  61.8226 -77.0398 -45.7606
LeftHand  -0.566326 -4.1527 7.16299
RightShoulder  0.456285 -1.20669 13.0074
RightArm  -45.822 29.2923 20.2383
RightForeArm  62.2688 78.9185 71.9409
RightHand  -0.0195985 8.90067 -0.548536
LeftUpLeg  -7.91167 -2.77045 0.0231298
LeftLeg  -0.264071 -23.7052 0.41305
LeftFoot  3.32499 0.74208 -5.84958
LeftToes  4.78049e-008 1.46235e-008 1.34219e-009
157
root  -4.36995 40.7756 -0.323789 1.29959 -43.7703 3.27211
RightUpLeg  5.31723 -3.90967 -0.306998
RightLeg  -10.2179 -62.1728 10.0575
RightFoot  -1.91905 -0.405384 4.82361
RightToes  -3.1126e-008 1.75238e-005 3.56266e-009
Spine  9.18205 7.16306 2.62459
Spine1  -17.7214 7.24257 -8.89573
HEad  -0.771163 -2.7424 2.26959
LeftShoulder1  0.0808783 3.12606 -14.499
LeftArm  -23.8404 19.0252 -44.4801
LeftForeArm  61.8917 -77.0254 -45.6381
LeftHand  -0.538306 -4.16669 6.81594
RightShoulder  0.398442 -1.50029 13.0315
RightArm  -47.1272 27.8924 19.1719
RightForeArm  62.0833 78.9136 72.2236
RightHand  0.00787701 8.63877 -0.327136
LeftUpLeg  -7.82626 -2.83232 -0.0453566
LeftLeg  -0.300819 -23.4931 0.451483
LeftFoot  3.25396 0.748498 -5.93946
LeftToes  4.78049e-008 1.46235e-008 1.34219e-009
158
root  -4.33995 40.7762 -0.306187 1.21123 -43.9031 3.24915
RightUpLeg  5.37617 -3.89785 -0.329644
RightLeg  -10.087 -62.0637 9.88191
RightFoot  -1.87426 -0.400115 4.73991
RightToes  -3.1126e-008 1.75238e-005 3.56266e-009
Spine  9.25516 7.39911 2.60283
Spine1  -17.7257 7.46882 -8.66369
HEad  -0.419375 -2.66315 1.92028
LeftShoulder1  0.103789 3.02366 -14.6751
LeftArm  -24.247 20.036 -43.5278
LeftForeArm  61.3863 -77.0119 -45.7632
LeftHand  -0.533239 -4.30406 6.66879
RightShoulder  0.293302 -1.99087 12.5766
RightArm  -47.6054 27.0427 19.0059
RightForeArm  62.7744 78.9615 73.5218
RightHand  -0.033443 8.24778 -0.667516
LeftUpLeg  -7.74362 -2.87699 -0.0820807
LeftLeg  -0.217223 -23.3181 0.463356
LeftFoot  3.16722 0.753367 -6.00716
LeftToes  4.78049e-008 1.46235e-008 1.34219e-009
159
root  -4.33746 40.7768 -0.306692 1.16257 -43.9661 3.25456
RightUpLeg  5.42856 -3.79601 -0.276306
RightLeg  -10.1714 -62.108 9.84582
RightFoot  -1.84877 -0.401868 4.76686
RightToes  -3.1126e-008 1.75238e-005 3.56266e-009
Spine  9.26538 7.45598 2.59158
Spine1  -17.8137 7.51411 -8.66673
HEad  0.08985 -2.5832 1.73802
LeftShoulder1  0.0553727 3.24359 -14.3587
LeftArm  -24.2442 20.9267 -43.5719
LeftForeArm  62.1598 -77.1908 -46.6496
LeftHand  -0.542548 -3.87037 7.065
RightShoulder  0.283747 -2.03838 12.548
RightArm  -47.9005 26.9264 18.96
RightForeArm  63.4214 78.9949 73.9626
RightHand  0.0476184 8.72097 0.00463511
LeftUpLeg  -7.75594 -2.83221 -0.0643028
LeftLeg  -0.0783984 -23.3032 0.37119
LeftFoot  3.06168 0.759442 -6.09576
LeftToes  4.78049e-008 1.46235e-008 1.34219e-009
160
root  -4.31428 40.7776 -0.308305 1.06105 -44.202 3.25218
RightUpLeg  5.50891 -3.74889 -0.284785
RightLeg  -10.1499 -61.8837 9.74614
RightFoot  -1.78678 -0.402667 4.77978
RightToes  -3.1126e-008 1.75238e-005 3.56266e-009
Spine  9.34843 7.55689 2.83171
Spine1  -17.8738 7.62385 -8.92409
HEad  0.613258 -2.71399 1.88253
LeftShoulder1  0.0337628 3.34564 -14.377
LeftArm  -24.2415 21.1118 -43.8662
LeftForeArm  61.8963 -77.1211 -46.2805
LeftHand  -0.533663 -4.04956 6.83715
RightShoulder  0.321567 -1.85112 12.6034
RightArm  -47.5048 27.2445 19.108
RightForeArm  64.9234 79.0729 75.5945
RightHand  -0.0337305 8.61801 -0.664884
LeftUpLeg  -7.67184 -2.82502 -0.0641925
LeftLeg  -0.027036 -23.0902 0.360518
LeftFoot  3.01461 0.762011 -6.13169
LeftToes  4.78049e-008 1.46235e-008 1.34219e-009
161
root  -4.26593 40.7788 -0.318046 1.09811 -44.4353 3.16963
RightUpLeg  5.46034 -3.76783 -0.303676
RightLeg  -10.1262 -61.6104 9.75877
RightFoot  -1.77233 -0.39698 4.69194
RightToes  -3.1126e-008 1.75238e-005 3.56266e-009
Spine  9.54209 7.62643 3.25052
Spine1  -18.0152 7.7046 -9.27919
HEad  1.11492 -2.86249 2.05599
LeftShoulder1  0.00897155 3.46276 -14.3898
LeftArm  -24.1692 21.1116 -44.7702
LeftForeArm  62.6169 -77.201 -46.5233
LeftHand  -0.538066 -4.28638 6.73945
RightShoulder  0.396942 -1.4802 12.748
RightArm  -47.1004 28.0995 19.1674
RightForeArm  65.5304 79.1014 76.0534
RightHand  0.00459753 8.55711 -0.347865
LeftUpLeg  -7.73315 -2.88415 -0.0356955
LeftLeg  0.0725235 -22.813 0.404638
LeftFoot  2.94202 0.77405 -6.3178
LeftToes  4.78049e-008 1.46235e-008 1.34219e-009
162
root  -4.24752 40.7833 -0.327922 1.08626 -44.5729 3.09085
RightUpLeg  5.48567 -3.74012 -0.263299
RightLeg  -10.0646 -61.4889 9.6993
RightFoot  -1.73695 -0.399364 4.73272
RightToes  -3.1126e-008 1.75238e-005 3.56266e-009
Spine  9.43548 7.87787 3.25176
Spine1  -17.7429 7.97286 -9.08837
HEad  1.31102 -3.12881 2.01384
LeftShoulder1  0.0686428 3.18923 -14.9663
LeftArm  -23.604 20.7508 -45.3058
LeftForeArm  62.1626 -77.1886 -46.6344
LeftHand  -0.526321 -3.81188 6.91348
RightShoulder  0.385622 -1.51313 12.4694
RightArm  -46.4943 28.905 19.6919
RightForeArm  65.5582 79.1027 76.0221
RightHand  -0.00823848 8.77394 -0.457781
LeftUpLeg  -7.63993 -2.87149 -0.00491176
LeftLeg  0.0134673 -22.5595 0.458722
LeftFoot  2.91378 0.773088 -6.31478
LeftToes  4.78049e-008 1.46235e-008 1.34219e-009
163
root  -4.23748 40.7871 -0.342093 1.10011 -44.6992 3.07622
RightUpLeg  5.44295 -3.7389 -0.260602
RightLeg  -10.059 -61.3907 9.70489
RightFoot  -1.70008 -0.393707 4.65482
RightToes  -3.1126e-008 1.75238e-005 3.56266e-009
Spine  9.57531 7.8497 3.52528
Spine1  -17.8552 7.96026 -9.60547
HEad  1.51559 -3.42707 2.87075
LeftShoulder1  0.10615 3.02083 -15.0807
LeftArm  -23.193 20.7123 -45.8339
LeftForeArm  62.9493 -77.2377 -46.634
LeftHand  -0.526134 -4.57499 6.41325
RightShoulder  0.447581 -1.23523 12.8562
RightArm  -45.896 29.5043 20.2862
RightForeArm  66.6718 79.1531 76.9169
RightHand  -0.00368477 8.37367 -0.415804
LeftUpLeg  -7.58164 -2.87714 0.00871782
LeftLeg  -0.149934 -22.4255 0.54244
LeftFoot  2.98355 0.7699 -6.24822
LeftToes  4.78049e-008 1.46235e-008 1.34219e-009
164
root  -4.2323 40.7856 -0.361488 1.13553 -44.8191 3.06126
RightUpLeg  5.43451 -3.75689 -0.269573
RightLeg  -10.2538 -61.217 9.9243
RightFoot  -1.71313 -0.383363 4.50888
RightToes  -3.1126e-008 1.75238e-005 3.56266e-009
Spine  9.43799 7.83342 3.46924
Spine1  -17.5326 7.97288 -9.56536
HEad  1.32028 -3.23027 2.9865
LeftShoulder1  0.147627 2.83944 -15.3689
LeftArm  -23.0772 20.1122 -46.3837
LeftForeArm  61.9643 -77.0395 -45.7083
LeftHand  -0.506223 -4.25984 6.36942
RightShoulder  0.467942 -1.16345 13.1406
RightArm  -44.9877 29.9209 21.1097
RightForeArm  69.1184 79.2512 79.1706
RightHand  -0.0139013 8.94221 -0.500015
LeftUpLeg  -7.58508 -2.77581 0.0909871
LeftLeg  -0.23486 -22.4165 0.503934
LeftFoot  3.00389 0.775484 -6.30586
LeftToes  4.78049e-008 1.46235e-008 1.34219e-009
165
root  -4.24637 40.7829 -0.388545 1.24611 -44.6998 2.99727
RightUpLeg  5.33028 -3.73044 -0.175183
RightLeg  -10.1686 -61.3778 9.89949
RightFoot  -1.76907 -0.382339 4.51104
RightToes  -3.1126e-008 1.75238e-005 3.56266e-009
Spine  9.33179 7.67793 3.07792
Spine1  -17.4609 7.79999 -9.11985
HEad  1.28037 -3.00849 3.0312
LeftShoulder1  0.157319 2.80005 -15.5091
LeftArm  -23.3483 18.7314 -47.1907
LeftForeArm  59.8315 -76.4732 -43.0896
LeftHand  -0.536779 -4.64631 6.49878
RightShoulder  0.502186 -1.03977 13.5667
RightArm  -43.2064 29.429 22.6004
RightForeArm  74.6929 79.4073 84.1477
RightHand  -0.107293 8.95784 -1.26047
LeftUpLeg  -7.68558 -2.705 0.177616
LeftLeg  -0.235225 -22.5723 0.47754
LeftFoot  3.03697 0.778059 -6.31234
LeftToes  4.78049e-008 1.46235e-008 1.34219e-009
166
root  -4.25115 40.7795 -0.423463 1.38911 -44.3832 2.95883
RightUpLeg  5.1412 -3.72004 -0.0932675
RightLeg  -10.0195 -61.6958 9.8353
RightFoot  -1.81125 -0.38565 4.58246
RightToes  -3.1126e-008 1.75238e-005 3.56266e-009
Spine  9.23832 7.45769 2.6522
Spine1  -17.4047 7.55853 -8.64619
HEad  1.12921 -2.83019 2.65352
LeftShoulder1  0.17995 2.70448 -15.6855
LeftArm  -23.7368 16.1496 -47.7526
LeftForeArm  57.3354 -75.811 -40.5178
LeftHand  -0.559505 -4.44088 6.89134
RightShoulder  0.525898 -0.962468 13.91
RightArm  -40.8879 27.9863 24.468
RightForeArm  83.1762 79.4557 92.694
RightHand  -0.0851135 8.40347 -1.0987
LeftUpLeg  -7.90477 -2.73324 0.216018
LeftLeg  -0.197811 -22.9123 0.489412
LeftFoot  3.14042 0.777716 -6.26788
LeftToes  4.78049e-008 1.46235e-008 1.34219e-009
167
root  -4.25459 40.7761 -0.46369 1.44052 -43.9936 2.95238
RightUpLeg  5.09181 -3.74679 -0.0339883
RightLeg  -10.1799 -62.0542 10.0603
RightFoot  -1.889 -0.377654 4.47884
RightToes  -3.1126e-008 1.75238e-005 3.56266e-009
Spine  8.91401 7.19805 1.79645
Spine1  -16.9416 7.28076 -7.48372
HEad  0.994843 -2.64191 2.51506
LeftShoulder1  0.198671 2.63988 -16.2094
LeftArm  -23.9598 12.7528 -47.557
LeftForeArm  55.9975 -75.453 -39.3008
LeftHand  -0.572299 -4.12399 7.25541
RightShoulder  0.592111 -0.696434 14.3243
RightArm  -38.224 26.1929 26.4596
RightForeArm  88.6907 79.3675 98.1261
RightHand  -0.0397733 8.68895 -0.714768
LeftUpLeg  -8.02526 -2.78901 0.210418
LeftLeg  -0.256142 -23.251 0.562678
LeftFoot  3.25765 0.811724 -6.48772
LeftToes  4.78049e-008 1.46235e-008 1.34219e-009
168
root  -4.27301 40.7711 -0.52201 1.28531 -43.6898 2.99216
RightUpLeg  5.17341 -3.90907 -0.0603971
RightLeg  -10.0474 -62.1929 10.117
RightFoot  -2.03473 -0.372594 4.41994
RightToes  -3.1126e-008 1.75238e-005 3.56266e-009
Spine  9.01219 6.88687 0.900694
Spine1  -16.7906 6.93267 -6.47995
HEad  0.739348 -1.59741 2.03749
LeftShoulder1  0.25354 2.40754 -16.3554
LeftArm  -24.5836 9.06454 -47.1927
LeftForeArm  55.73 -75.4083 -39.1929
LeftHand  -0.560429 -4.05848 7.16119
RightShoulder  0.712673 -0.225045 15.0232
RightArm  -35.5629 23.8994 28.3387
RightForeArm  92.7413 79.294 101.476
RightHand  -0.0786891 8.57136 -1.03816
LeftUpLeg  -7.99466 -2.71966 0.267953
LeftLeg  -0.229527 -23.7349 0.518457
LeftFoot  3.3066 0.841893 -6.70253
LeftToes  4.78049e-008 1.46235e-008 1.34219e-009
169
root  -4.28348 40.7676 -0.574593 1.326 -43.4218 2.88641
RightUpLeg  5.21013 -3.88882 0.0826349
RightLeg  -10.2595 -62.4615 10.3978
RightFoot  -2.11622 -0.365684 4.33006
RightToes  -3.1126e-008 1.75238e-005 3.56266e-009
Spine  8.8615 6.81065 -0.165756
Spine1  -16.4385 6.79792 -4.97194
HEad  1.00058 -1.89837 1.81589
LeftShoulder1  0.268934 2.35892 -16.7478
LeftArm  -25.4367 4.29577 -46.65
LeftForeArm  54.8894 -75.0973 -38.1325
LeftHand  -0.53606 -4.49298 6.58029
RightShoulder  0.788661 0.0332773 15.6436
RightArm  -33.1277 21.3747 29.5261
RightForeArm  95.3976 79.1978 103.983
RightHand  -0.133631 8.5811 -1.49289
LeftUpLeg  -8.09869 -2.63668 0.377576
LeftLeg  -0.101698 -24.0555 0.4831
LeftFoot  3.28101 0.856993 -6.83037
LeftToes  4.78049e-008 1.46235e-008 1.34219e-009
